<svg width="45" height="45" viewBox="0 0 45 45" fill="none" xmlns="http://www.w3.org/2000/svg">
<path d="M45 22.5C45 34.92 34.92 45 22.5 45C10.08 45 0 34.92 0 22.5C0 10.08 10.08 0 22.5 0C34.92 0 45 10.08 45 22.5Z" fill="#37B34A"/>
<path d="M34.5151 22.4999C34.5151 29.1374 29.1376 34.5149 22.5001 34.5149C15.8626 34.5149 10.4851 29.1374 10.4851 22.4999C10.4851 15.8624 15.8626 10.4849 22.5001 10.4849C29.1376 10.4849 34.5151 15.8624 34.5151 22.4999Z" fill="white"/>
<path d="M31.1176 18.6973C29.5651 18.0673 27.8776 17.9323 26.4376 18.8773C26.1451 19.0573 25.9651 19.0123 25.7851 18.7198C25.5151 18.2923 25.3126 18.0898 25.1551 17.9998C26.5951 17.3698 27.0226 15.5023 26.7976 14.5123C26.7751 14.4448 26.6626 14.4448 26.6401 14.5123C26.2126 15.9973 25.0201 16.6948 24.0751 16.6948C23.8051 16.4248 23.4451 16.6948 22.0726 16.6948C20.7001 16.6948 20.3401 16.4248 20.0701 16.6948C19.1251 16.6948 17.9326 15.9973 17.5051 14.5123C17.4826 14.4448 17.3701 14.4448 17.3476 14.5123C17.1226 15.4798 17.5501 17.3698 18.9901 17.9998C18.8326 18.0898 18.6526 18.2698 18.3601 18.7198C18.1801 19.0123 18.0001 19.0573 17.7076 18.8773C16.2676 17.9323 14.5801 18.0673 13.0276 18.6973C12.8476 18.7648 13.2301 20.2948 13.8601 21.0148C14.5126 21.7573 15.5026 22.2748 17.3701 21.8923C17.7076 21.8248 17.6851 22.4548 17.6851 23.1073C17.6851 24.5698 18.9676 26.2573 18.9676 27.7198C18.9676 28.1248 18.6301 28.7323 18.7426 29.5873C18.8326 30.2623 19.4626 30.7348 20.0026 30.8698C20.3401 30.9598 20.9026 30.9598 21.2176 30.8923C21.4426 31.0723 21.7576 31.1623 22.0726 31.1848C22.3876 31.1848 22.7026 31.0723 22.9276 30.8923C23.2426 30.9598 23.8051 30.9598 24.1426 30.8698C24.6826 30.7348 25.3126 30.2623 25.4026 29.5873C25.5151 28.7548 25.1776 28.1248 25.1776 27.7198C25.1776 26.2573 26.4601 24.5698 26.4601 23.1073C26.4601 22.4548 26.4376 21.8023 26.7751 21.8923C28.6426 22.2748 29.6326 21.7573 30.2851 21.0148C30.9376 20.2948 31.3201 18.7873 31.1176 18.6973ZM23.8726 20.9698C23.2651 21.2848 23.0626 21.7123 22.9276 22.2748C22.7701 22.9048 22.7026 22.9498 22.7026 23.7373C22.7026 25.4923 23.2201 26.9098 23.4676 27.6748C23.5576 27.9448 23.6251 28.1923 23.8726 28.3498C24.0751 28.4848 24.4801 28.6423 24.4801 29.2723C24.4801 29.8573 24.1426 30.1048 23.9176 30.1048C23.8276 30.1048 23.7151 30.1048 23.7376 29.8348C23.8501 28.9573 23.2201 29.3173 22.1176 29.3173C20.9926 29.3173 20.3851 28.9798 20.4976 29.8348C20.5201 30.1048 20.4076 30.1048 20.3176 30.1048C20.0926 30.1048 19.7551 29.8573 19.7551 29.2723C19.7551 28.6423 20.1601 28.4848 20.3626 28.3498C20.5876 28.1923 20.6776 27.9448 20.7676 27.6748C21.0151 26.8873 21.5326 25.4923 21.5326 23.7373C21.5326 22.9498 21.4651 22.9048 21.3076 22.2748C21.1726 21.7123 20.9701 21.2623 20.3626 20.9698C19.1476 20.3623 18.8776 19.6873 20.1601 18.2698C20.4526 17.9323 21.5551 18.2698 22.1626 18.2698C22.7701 18.2698 23.8726 17.9323 24.1651 18.2698C25.3576 19.6873 25.0876 20.3623 23.8726 20.9698Z" fill="#37B34A"/>
<path d="M31.7701 25.4025C32.2651 23.5575 31.3201 22.3425 30.6001 23.0175C30.1951 22.455 29.1601 22.32 28.8676 23.04C28.2376 22.9725 28.1926 23.67 28.8451 23.985C26.7751 24.9075 25.9651 26.1225 26.1451 28.17C26.2351 29.205 26.2351 30.2625 25.4476 30.69C26.7751 30.9375 28.5301 30.51 29.0251 28.71C29.2951 27.765 29.5876 27.315 29.9251 26.9325C29.9701 27.9225 31.3426 27.8775 31.3201 26.91C31.2976 26.46 31.4551 26.37 31.6126 26.3475C31.8826 26.3475 32.1526 26.3925 32.3776 26.4825C32.3101 26.01 32.0626 25.6725 31.7701 25.4025ZM29.8576 25.515C29.7001 25.515 29.5426 25.38 29.5426 25.2C29.5426 25.0425 29.6776 24.885 29.8576 24.885C30.0151 24.885 30.1726 25.02 30.1726 25.2C30.1501 25.38 30.0151 25.515 29.8576 25.515Z" fill="#37B34A"/>
<path d="M10.4851 13.14L7.6276 10.575C7.4926 10.44 7.4701 10.2375 7.6051 10.1025L8.7751 8.79745C8.8876 8.66245 9.0901 8.63995 9.2251 8.75245C9.3601 8.88745 9.3601 9.06745 9.2476 9.20245L8.30261 10.26L10.9351 12.645C11.1151 12.8025 11.1151 12.9825 10.9801 13.14C10.8451 13.275 10.6651 13.275 10.4851 13.14Z" fill="white"/>
<path d="M11.2274 9.47256C10.4624 8.32506 10.6199 7.08756 11.5874 6.43506C12.5999 5.73756 13.8149 6.12006 14.5349 7.22256C15.2774 8.30256 15.1874 9.56256 14.1749 10.2601C13.1624 10.9351 11.9699 10.5526 11.2274 9.47256ZM13.9724 7.60506C13.4324 6.79506 12.6449 6.45756 11.9249 6.93006C11.2499 7.38006 11.2499 8.23506 11.8124 9.06756C12.3299 9.83256 13.1174 10.2376 13.8599 9.72006C14.5349 9.27006 14.5124 8.39256 13.9724 7.60506Z" fill="white"/>
<path d="M16.9875 8.32508L15.795 4.99508L15.075 5.26508C14.895 5.33258 14.715 5.26508 14.67 5.08508C14.6025 4.90508 14.6925 4.74758 14.8725 4.68008L16.965 3.91508C17.145 3.84758 17.325 3.91508 17.37 4.09508C17.4375 4.27508 17.3475 4.43258 17.1675 4.50008L16.425 4.77008L17.64 8.10008C17.7075 8.30258 17.64 8.48258 17.46 8.55008C17.235 8.61758 17.0775 8.52758 16.9875 8.32508Z" fill="white"/>
<path d="M18.7874 5.67007C18.6524 4.29757 19.3724 3.28507 20.5649 3.17257C21.7799 3.06007 22.6574 3.96007 22.7924 5.26507C22.9274 6.57007 22.2524 7.62757 21.0149 7.76257C19.7999 7.87507 18.9224 6.97507 18.7874 5.67007ZM22.0724 5.35507C21.9824 4.38757 21.4424 3.69007 20.6099 3.78007C19.7999 3.87007 19.3949 4.59007 19.4849 5.60257C19.5749 6.50257 20.0699 7.24507 20.9699 7.15507C21.8024 7.06507 22.1849 6.27757 22.0724 5.35507Z" fill="white"/>
<path d="M23.6926 7.28995L24.3451 3.50995C24.3676 3.30745 24.5476 3.21745 24.7501 3.23995L25.7176 3.39745C26.4601 3.53245 26.8876 4.04995 26.7751 4.72495C26.7076 5.12995 26.4601 5.42245 26.0326 5.51245V5.53495C26.5951 5.73745 26.8876 6.18745 26.7976 6.79495C26.6626 7.58245 26.0101 7.98745 25.1551 7.85245L24.0076 7.64995C23.7826 7.62745 23.6701 7.46995 23.6926 7.28995ZM25.1551 7.24495C25.6726 7.33495 26.0326 7.15495 26.1226 6.68245C26.1901 6.23245 25.8751 5.89495 25.4026 5.80495L24.6601 5.66995L24.4126 7.10995L25.1551 7.24495ZM25.3351 5.21995C25.6951 5.28745 26.0326 5.08495 26.1001 4.70245C26.1676 4.34245 25.9201 4.04995 25.5601 3.98245L24.9526 3.86995L24.7501 5.10745L25.3351 5.21995Z" fill="white"/>
<path d="M27.315 7.96487L28.935 4.49988C29.025 4.29738 29.205 4.22987 29.385 4.31987C29.565 4.40987 29.6325 4.58987 29.52 4.79237L28.26 7.46987H28.2825L31.6125 5.60237C31.7475 5.53487 31.8825 5.48987 32.0175 5.55737C32.1975 5.64737 32.265 5.82737 32.175 6.00737L30.555 9.49487C30.465 9.69737 30.285 9.76487 30.105 9.67487C29.925 9.58488 29.8575 9.40487 29.97 9.20237L31.23 6.50237H31.2075L27.9 8.36987C27.72 8.45987 27.585 8.50487 27.45 8.43738C27.27 8.34737 27.225 8.16737 27.315 7.96487Z" fill="white"/>
<path d="M31.1175 9.80997C31.1625 9.76497 31.2975 9.65247 31.635 9.40497L34.155 7.46997C34.425 7.26747 34.65 7.26747 34.875 7.49247C35.0775 7.69497 35.055 7.87497 34.875 8.25747L33.5475 10.8675L36.045 9.44998C36.45 9.22498 36.6525 9.17997 36.855 9.38247C37.08 9.60747 37.1025 9.83247 36.9225 10.1025L34.92 12.9825C34.83 13.1175 34.7625 13.2075 34.74 13.23C34.6275 13.3425 34.4475 13.365 34.3125 13.23C34.1325 13.05 34.1775 12.8925 34.335 12.6675L36.1575 10.08L33.255 11.7225C32.985 11.8575 32.8725 11.8575 32.7375 11.7225C32.58 11.5875 32.625 11.43 32.715 11.25L34.2225 8.23497L31.725 10.1925C31.4775 10.395 31.32 10.3725 31.1625 10.2375C31.005 10.1025 31.005 9.94497 31.1175 9.80997Z" fill="white"/>
<path d="M4.07233 17.4826L7.82982 18.2026C8.00983 18.2251 8.12233 18.4051 8.07733 18.5851L7.73983 20.3626C7.69483 20.5426 7.55982 20.6776 7.37983 20.6326C7.19983 20.5876 7.10983 20.4301 7.13233 20.2501L7.40233 18.8101L6.23233 18.5851L6.02983 19.5976C5.89483 20.3626 5.28733 20.8351 4.47733 20.6776C3.68983 20.5201 3.26233 19.8676 3.41983 18.9901L3.64483 17.7526C3.73483 17.5501 3.89233 17.4601 4.07233 17.4826ZM4.04983 19.0351C3.95983 19.5301 4.13983 19.9126 4.61233 20.0026C5.06233 20.0926 5.39983 19.7776 5.48983 19.3276L5.64733 18.4501L4.20733 18.1801L4.04983 19.0351Z" fill="white"/>
<path d="M3.4422 22.05L7.2672 21.9375C7.4697 21.9375 7.6047 22.0725 7.6047 22.275L7.6497 23.8275C7.6497 24.0075 7.5372 24.165 7.3572 24.165C7.1772 24.165 7.0422 24.03 7.0422 23.85L6.9972 22.635L5.6697 22.68L5.7147 23.8275C5.7147 24.0075 5.6022 24.1425 5.4222 24.165C5.2422 24.165 5.1072 24.03 5.1072 23.85L5.0622 22.68L3.7347 22.725L3.7797 24.0075C3.7797 24.1875 3.6672 24.3225 3.4872 24.345C3.3072 24.345 3.1722 24.21 3.1722 24.03L3.1272 22.4325C3.1272 22.185 3.2397 22.05 3.4422 22.05Z" fill="white"/>
<path d="M3.66703 25.7851C3.73453 25.6276 3.84703 25.5376 3.93703 25.5151C4.11703 25.4701 4.29703 25.5601 4.34203 25.7401C4.36453 25.8076 4.34203 25.8751 4.31953 25.9876C4.13953 26.4151 4.16203 26.6626 4.20703 26.9101C4.31953 27.3826 4.67953 27.6526 5.10703 27.5626C5.62453 27.4276 5.71453 26.9326 5.57953 26.3476C5.48953 26.0101 5.60203 25.8976 5.75953 25.8526C5.96203 25.8076 6.09703 25.8976 6.16453 26.1451C6.29953 26.6851 6.65953 26.9776 7.04203 26.8876C7.40203 26.7976 7.58203 26.4826 7.49203 26.1001C7.42453 25.8526 7.28953 25.6726 7.04203 25.4926C6.95203 25.4251 6.90703 25.3801 6.88453 25.3126C6.83953 25.1551 6.95203 24.9976 7.10953 24.9526C7.42453 24.8851 7.91953 25.2901 8.09953 26.0101C8.30203 26.8201 7.91953 27.3826 7.28953 27.5401C6.86203 27.6526 6.47953 27.5401 6.14203 27.1351C6.14203 27.6976 5.82703 28.0801 5.30953 28.2151C4.52203 28.4176 3.80203 27.9451 3.59953 27.0451C3.48703 26.5276 3.53203 26.0551 3.66703 25.7851Z" fill="white"/>
<path d="M7.10958 30.285C8.23458 29.565 9.51708 29.6775 10.1921 30.7575C10.4171 31.1175 10.5071 31.5 10.5071 31.7925C10.5071 32.0175 10.4396 32.1975 10.3271 32.2875C10.1696 32.4 9.98959 32.355 9.89959 32.22C9.85459 32.175 9.85458 32.085 9.85458 31.95C9.87708 31.6125 9.80959 31.3425 9.65209 31.0725C9.22459 30.3975 8.27958 30.375 7.49208 30.87C6.68208 31.3875 6.38959 32.1525 6.86209 32.895C7.06459 33.21 7.28959 33.39 7.51459 33.5025C7.64959 33.5475 7.73959 33.615 7.76209 33.66C7.85209 33.8175 7.80709 33.9525 7.64959 34.065C7.53709 34.1325 7.35709 34.1325 7.19959 34.0425C6.90709 33.93 6.56958 33.6375 6.32208 33.255C5.57958 32.1075 6.02958 30.96 7.10958 30.285Z" fill="white"/>
<path d="M8.39227 35.3475L11.0248 32.5575C11.1598 32.4225 11.3398 32.4225 11.4973 32.5575L12.2173 33.2325C12.7798 33.75 12.8248 34.4251 12.3523 34.9425C12.0598 35.2576 11.6998 35.3475 11.2948 35.19L11.2723 35.2125C11.6323 35.7075 11.6323 36.225 11.2048 36.675C10.6648 37.26 9.87727 37.2375 9.24727 36.6301L8.39227 35.82C8.25727 35.685 8.25727 35.4825 8.39227 35.3475ZM9.60727 36.135C9.98977 36.495 10.3948 36.54 10.7323 36.2025C11.0473 35.865 10.9573 35.415 10.5973 35.0775L10.0573 34.56L9.06727 35.6175L9.60727 36.135ZM10.8898 34.56C11.1598 34.8075 11.5423 34.83 11.8123 34.5375C12.0598 34.2675 12.0373 33.9075 11.7448 33.6375L11.2948 33.21L10.4173 34.1325L10.8898 34.56Z" fill="white"/>
<path d="M11.8572 38.385L13.6797 35.01C13.7922 34.8075 13.9722 34.74 14.1522 34.8525C14.3322 34.9425 14.3772 35.1225 14.2647 35.325L12.8697 37.9125L16.2897 36.2475C16.4247 36.18 16.5597 36.135 16.6947 36.225C16.8747 36.315 16.9197 36.495 16.8297 36.6975L15.0072 40.0725C14.8947 40.275 14.7147 40.3425 14.5347 40.23C14.3547 40.14 14.3097 39.96 14.4222 39.7575L15.8397 37.1475L12.4422 38.8125C12.2397 38.9025 12.1272 38.925 11.9922 38.8575C11.7897 38.7675 11.7672 38.5875 11.8572 38.385Z" fill="white"/>
<path d="M16.7848 40.7475L17.5723 36.99C17.6173 36.765 17.7748 36.6525 17.9773 36.6975C18.1798 36.7425 18.2698 36.9 18.2248 37.125L17.9098 38.655L20.1148 39.1275L20.4298 37.5975C20.4748 37.3725 20.6323 37.26 20.8348 37.305C21.0373 37.35 21.1273 37.5075 21.0823 37.7325L20.2948 41.49C20.2498 41.715 20.0923 41.8275 19.8898 41.7825C19.6873 41.7375 19.5973 41.58 19.6423 41.355L19.9798 39.7125L17.7748 39.24L17.4373 40.8825C17.3923 41.1075 17.2348 41.22 17.0323 41.175C16.8523 41.13 16.7398 40.9725 16.7848 40.7475Z" fill="white"/>
<path d="M21.8923 39.7125C21.7798 38.34 22.5223 37.35 23.7148 37.2375C24.9298 37.1475 25.8073 38.07 25.8973 39.375C26.0098 40.68 25.3123 41.7375 24.0748 41.8275C22.8598 41.94 22.0048 41.0175 21.8923 39.7125ZM25.1998 39.465C25.1098 38.4975 24.6148 37.8 23.7598 37.8675C22.9498 37.935 22.5223 38.655 22.6123 39.6675C22.6798 40.5675 23.1748 41.3325 24.0748 41.2425C24.8848 41.175 25.2898 40.3875 25.1998 39.465Z" fill="white"/>
<path d="M27.652 40.8375L26.4145 37.215C26.347 37.035 26.437 36.855 26.617 36.81L28.282 36.2475C28.462 36.18 28.642 36.27 28.687 36.4275C28.7545 36.6075 28.642 36.765 28.4845 36.8325L27.1345 37.2825L28.282 40.635C28.3495 40.86 28.282 41.0175 28.0795 41.085C27.877 41.1525 27.7195 41.0625 27.652 40.8375Z" fill="white"/>
<path d="M30.0599 37.9801C29.3174 36.8101 29.4974 35.5951 30.5099 34.9426C31.5449 34.2676 32.7374 34.6951 33.4574 35.7976C34.1774 36.9001 34.0649 38.1601 33.0299 38.8351C31.9724 39.4876 30.7574 39.0826 30.0599 37.9801ZM32.8499 36.2026C32.3099 35.3926 31.5449 35.0101 30.8249 35.4826C30.1499 35.9101 30.1049 36.7651 30.6449 37.6201C31.1399 38.3851 31.9274 38.8126 32.6699 38.3401C33.3674 37.8676 33.3674 36.9901 32.8499 36.2026Z" fill="white"/>
<path d="M36.8998 35.2575C36.8548 35.235 36.7198 35.1 36.4273 34.83L34.1098 32.67C33.8623 32.445 33.8398 32.22 34.0198 31.95C34.1773 31.7025 34.3798 31.7025 34.7848 31.815L37.5523 32.6925L35.7523 30.465C35.4598 30.105 35.3923 29.9025 35.5498 29.6775C35.7298 29.4075 35.9548 29.3625 36.2473 29.4975L39.4198 31.005C39.5773 31.0725 39.6673 31.1175 39.6898 31.14C39.8248 31.23 39.8923 31.41 39.7798 31.5675C39.6448 31.77 39.4648 31.7475 39.2173 31.635L36.3823 30.2625L38.4748 32.85C38.6548 33.075 38.6548 33.21 38.5648 33.3675C38.4523 33.5475 38.2948 33.525 38.0923 33.48L34.8748 32.49L37.2148 34.6275C37.4398 34.8525 37.4623 35.01 37.3498 35.1675C37.2148 35.325 37.0573 35.3475 36.8998 35.2575Z" fill="white"/>
<path d="M40.2525 29.6549C40.14 29.6099 40.095 29.5649 40.0275 29.4524L39.0825 27.7874L38.9925 28.0574C38.7225 28.7099 38.0925 28.9574 37.44 28.7549C36.7425 28.5299 36.3825 27.8324 36.63 27.0224L36.945 25.9649C37.0125 25.7624 37.17 25.6724 37.35 25.7399L41.0175 26.8874C41.2425 26.9549 41.3325 27.1124 41.265 27.3149C41.1975 27.5174 41.04 27.5849 40.815 27.5174L39.3075 27.0449V27.0674L40.545 29.1149C40.635 29.2499 40.635 29.3399 40.59 29.4524C40.59 29.6099 40.41 29.7224 40.2525 29.6549ZM38.835 26.8874L37.4625 26.4599L37.2375 27.1799C37.1025 27.6299 37.2375 27.9899 37.71 28.1249C38.1375 28.2599 38.4525 28.0349 38.61 27.6074L38.835 26.8874Z" fill="white"/>
<path d="M39.5098 25.1775C38.1598 25.0875 37.1923 24.255 37.2823 22.995C37.3048 22.5675 37.4623 22.2075 37.6198 21.96C37.7548 21.7575 37.9123 21.6675 38.0473 21.6675C38.2273 21.6675 38.3623 21.825 38.3623 21.96C38.3623 22.0275 38.3173 22.095 38.2498 22.185C38.0248 22.455 37.9348 22.7025 37.9123 23.0175C37.8673 23.805 38.6098 24.39 39.5548 24.4575C40.4998 24.5025 41.1973 24.0525 41.2648 23.1975C41.2873 22.8375 41.1973 22.5675 41.0848 22.3425C41.0173 22.23 40.9723 22.14 40.9723 22.0725C40.9723 21.8925 41.1073 21.8025 41.2873 21.8025C41.4223 21.8025 41.5573 21.915 41.6473 22.0725C41.8048 22.3425 41.9173 22.7475 41.8948 23.22C41.8048 24.5925 40.7698 25.245 39.5098 25.1775Z" fill="white"/>
<path d="M41.6022 20.565C41.4672 20.5875 41.2647 20.565 41.0397 20.52L37.5297 19.9575C37.2147 19.9125 37.0572 19.8 36.9897 19.5525C36.9447 19.3275 37.0347 19.1475 37.3272 18.99L40.4772 17.0325C40.5672 16.965 40.7247 16.875 40.8597 16.8525C41.0172 16.83 41.1522 16.92 41.1747 17.1C41.2197 17.3025 41.1297 17.3925 40.8822 17.5275L40.3422 17.865L40.7472 19.8225L41.3772 19.9125C41.6697 19.9575 41.7822 20.025 41.8047 20.205C41.8497 20.4075 41.7597 20.5425 41.6022 20.565ZM39.7797 18.2025L37.7772 19.395V19.4175L40.0947 19.755L39.7797 18.2025Z" fill="white"/>
<path d="M8.50489 15.5024C8.48239 15.5024 8.45989 15.5024 8.43739 15.4799L5.84989 14.1524C5.75989 14.1074 5.73739 14.0174 5.78239 13.9274C5.82739 13.8374 5.91739 13.8149 6.00739 13.8599L8.59489 15.1874C8.68489 15.2324 8.70739 15.3224 8.66239 15.4124C8.61739 15.4574 8.57239 15.5024 8.50489 15.5024Z" fill="white"/>
<path d="M36.4948 15.5024C36.4273 15.5024 36.3823 15.4799 36.3373 15.4124C36.2923 15.3224 36.3373 15.2324 36.4048 15.1874L38.9923 13.8599C39.0823 13.8149 39.1723 13.8599 39.2173 13.9274C39.2623 14.0174 39.2173 14.1074 39.1498 14.1524L36.5623 15.4799C36.5398 15.4799 36.5173 15.5024 36.4948 15.5024Z" fill="white"/>
</svg>
